<?xml version="1.0" encoding="UTF-8"?>
<svg version="1.1" viewBox="0 0 2048 992" width="258" height="125" xmlns="http://www.w3.org/2000/svg">
<path transform="translate(1527,365)" d="m0 0 4 2 2 9h93l3 4 15 38 43 108 12 30 25 63 15 38 2 4 2 1 2-5 9-24 13-31 17-41 15-36 19-46 20-48 15-37 6-15 4-4h111l-2 5-12 27-14 32-15 35-13 29-14 32-19 43-10 23-16 36-13 30-13 29-13 30-12 27-17 39-20 45-13 30-13 29-13 30-15 33-5 8h-109l-1-4 15-31 16-36 32-70 17-38 14-31-4 1h-20l-3-4-14-34-20-48-18-43-20-48-18-43-19-46-20-49-5-14-2-2-1 9-1 40-2 1-43 1-22 3-19 5-13 6-10 6-10 8-8 9-9 15-6 14-4 19-2 18-1 73-1 130-25 1h-80l-1-3v-402l1-4h94l2 8 7 61v5l5-4 12-17 11-13 11-11 15-11 13-8 16-8 21-7 24-4z" fill="#010101"/>
<path transform="translate(50,207)" d="m0 0 103 1 1 1v239h259v-233l1-8 105 1v576l-8 1h-97l-1-2v-250h-259v250l-1 1-16 1h-88l-1-1v-568l1-8z"/>
<path transform="translate(748,366)" d="m0 0h37l29 3 19 4 24 8 17 8 16 10 10 8 10 9 7 7 10 13 10 17 7 17 6 23 2 16 1 18v257l-24 1h-64l-2-2-4-26-4-33-1-3-14 18-8 10-11 11-13 10-15 9-11 5-15 5-14 3-14 2-14 1h-21l-23-2-21-4-18-6-17-8-15-10-12-11-8-8-10-15-8-17-5-17-2-11v-29l4-20 6-16 8-14 10-13 11-11 13-10 16-9 18-8 21-6 23-4 23-2 130-1-3-31-5-17-7-13-10-11-14-9-16-6-14-3-11-1h-10l-21 3-18 6-13 8-9 7-9 12-6 13-4 10h-103l1-11 5-20 6-16 8-15 11-16 12-14 10-9 14-10 14-9 23-11 26-8 22-4zm6 243-21 1-16 3-13 5-11 8-7 7-5 9-4 12v17l3 10 6 10 8 8 10 6 13 5 9 2h31l16-3 13-5 14-8 13-12 10-13 10-19 8-21 4-16v-5l-4-1z"/>
<path transform="translate(1243,366)" d="m0 0h10l2 1v109l-44 2-23 3-19 5-14 6-13 9-8 7-11 15-9 19-4 14-2 14-1 15-1 198-4 2h-101l-1-1-1-10v-348l1-48 2-3h90l3 3 3 21 5 45 1 6 5-4 7-11 7-9 9-10 12-12 19-14 23-12 18-6 18-4z" fill="#010101"/>
<path transform="translate(1787,89)" d="m0 0h36l1 1v13l-2 32-3 23-5 26-8 26-10 25-11 21-11 16-11 14-8 8-11 9-15 11-15 9-25 10-22 7-32 8-24 4-16 1h-35l-2-1-1-8 1-25 3-29 5-28 6-23 9-25 8-17 11-18 10-14 12-13 8-8 11-9 15-10 27-14 19-7 17-5 41-7z"/>
</svg>
