<?xml version="1.0" encoding="UTF-8"?>
<svg version="1.1" viewBox="0 0 2000 2000" width="500" height="500" xmlns="http://www.w3.org/2000/svg">
<path transform="translate(0)" d="m0 0h2e3v2e3h-2e3z" fill="#fff"/>
<path transform="translate(1228,936)" d="m0 0h7l1 5h48l11 27 11 28 34 85 1 4h2l3-10 30-72 16-39 9-22 1-1h57l-10 23-14 32-17 39-20 45-18 41-11 25-19 43-14 32-8 18-9 1h-48l3-9 17-37 16-35 11-25-10 1-4-4-6-15-34-82-16-38-11-27-1 23-1 1-27 1-14 3-10 4-9 7-6 8-4 8-3 13-1 12-1 99h-53v-207h48l4 32v6h2l2-5 6-8 6-7 13-10 16-8 15-4z" fill="#010101"/>
<path transform="translate(489,856)" d="m0 0h52l1 3v117l130 1v-120l1-1h52l1 1v290l-1 1h-53l-1-126h-123l-6-1-1 127h-53v-291z" fill="#010101"/>
<path transform="translate(841,936)" d="m0 0h18l17 2 18 5 16 8 10 8 9 9 8 14 4 10 3 15 1 28v112l-1 1h-45l-2-10-3-21-4 5-11 12-10 8-14 7-12 3-8 1h-18l-16-2-16-5-12-7-10-9-8-11-5-14-1-5v-20l3-11 5-10 7-9 10-9 15-8 18-5 16-2 67-1v-12l-3-11-6-10-10-7-8-3-6-1h-17l-11 3-10 5-7 7-4 8-2 6h-52l-1-2 4-15 5-12 7-11 13-13 14-9 11-5 13-4z" fill="#010101"/>
<path transform="translate(1091,936)" d="m0 0h5l1 1v55l-1 1-27 1-14 3-10 4-9 7-7 10-4 9-2 8-1 11-1 102h-53v-207h48l4 34 1 3 8-11 7-8 13-10 16-8 16-4z" fill="#010101"/>
<path transform="translate(1372,796)" d="m0 0h11v17l-2 19-5 21-6 16-6 12-12 16-13 11-13 8-15 6-28 7-7 1h-27v-18l2-19 5-21 6-16 8-14 8-10 11-11 11-7 16-8 17-5 18-3z" fill="#010101"/>
<path transform="translate(838,1059)" d="m0 0h51l1 2-4 15-7 14-9 10-6 5-9 4-9 2h-17l-10-3-6-4-5-6-3-8v-9l3-7 7-8 7-4z" fill="#fff"/>
</svg>
